<?xml version="1.0" encoding="utf-8"?>
<!-- Generator: Adobe Illustrator 21.1.0, SVG Export Plug-In . SVG Version: 6.00 Build 0)  -->
<svg version="1.2" baseProfile="tiny" id="Layer_1" xmlns="http://www.w3.org/2000/svg" xmlns:xlink="http://www.w3.org/1999/xlink"
	 x="0px" y="0px" viewBox="0 0 512 512" overflow="scroll" xml:space="preserve">
<circle fill="#3FA9F5" cx="256" cy="256" r="256"/>
<linearGradient id="SVGID_1_" gradientUnits="userSpaceOnUse" x1="262" y1="331" x2="262" y2="155">
	<stop  offset="0" style="stop-color:#FF7BAC"/>
	<stop  offset="0.5124" style="stop-color:#FF7BAC;stop-opacity:0.4902"/>
	<stop  offset="1" style="stop-color:#FF7BAC;stop-opacity:0"/>
</linearGradient>
<path fill="url(#SVGID_1_)" d="M389.4,331H134.6c-12.5,0-22.6-10.1-22.6-22.6V177.6c0-12.5,10.1-22.6,22.6-22.6h254.8
	c12.5,0,22.6,10.1,22.6,22.6v130.8C412,320.9,401.9,331,389.4,331z"/>
<g>
	<g>
		<path fill="#E7112D" d="M452.4,377.8c-130.3,0-260.5,0-390.8,0c-1.8,0-2.3-0.4-2.3-2.3c0.1-82.3,0-164.6,0-246.9
			c130,0,260,0,390-0.1c2.5,0,3,0.5,3,3C452.4,213.7,452.4,295.7,452.4,377.8z M267.5,180.7c-0.2,2.4-0.7,4.7-1.4,6.9
			c-1.6,5.3-4.5,10-5.9,15.3c-0.1,0.4-0.2,1.1-0.8,1c-0.7-0.1-0.8-0.8-0.7-1.4c0.2-2.9,0.4-5.7,0.6-8.6c0.3-5.1,1.1-10.2-2.8-15.1
			c0.2,2.8,0.3,5.1,0,7.3c-0.8,5.8-3.1,11.3-3.8,17.2c0,0.4-0.1,0.9-0.7,0.8c-0.5,0-0.7-0.4-0.7-0.8c-0.2-1.9-0.4-3.7-0.6-5.6
			c-0.3-4.1-0.2-8.2-1.4-12.2c-0.6-1.9-1.3-3.8-3.5-5c0.5,2.8,0.9,5.2,0.8,7.8c-0.2,5.3-1.4,10.6-1.2,15.9c0,0.4,0.1,0.9-0.4,1
			c-0.6,0.2-0.9-0.3-1-0.8c-0.3-0.7-0.5-1.4-0.6-2.1c-1.2-4.4-1.7-9-3.3-13.3c-0.9-2.6-2.2-4.8-5.2-6.5c1.2,2.9,1.9,5.4,2.3,8
			c0.7,5.4,0,11,1.3,16.4c0.1,0.4,0.2,1.1-0.4,1.3c-0.8,0.3-0.9-0.4-1.1-0.9c-1.3-3.2-2.9-6.4-3.9-9.8c-1-3.4-3-6.3-5.3-9
			c-0.6-0.7-1.5-1.5-2.8-1.2c1.6,3.2,3.1,6.3,3.7,9.7c0.9,4.6,1.5,9.2,3,13.6c0.1,0.4,0.5,0.9-0.2,1.2c-0.5,0.2-0.8-0.1-1-0.4
			c-0.6-0.9-1.3-1.7-1.8-2.6c-1.9-3.7-4.1-7.2-6.4-10.7c-1.6-2.6-3.8-4.2-7.1-5c3.8,4.9,11,22,10.1,23.7c-3.1-3.2-5.9-6.5-8.5-10.1
			c-1.7-2.3-3.9-4.2-6.6-5.3c-0.9-0.3-1.7-0.7-3-0.2c2.1,1.6,3.8,3.4,5.1,5.5c2.8,4.7,5,9.7,8.2,14.2c0.2,0.3,0.6,0.7,0.3,1.1
			c-0.4,0.6-0.9,0.2-1.3-0.1c-2.2-1.6-4.3-3.2-6.1-5.2c-2.5-2.8-5.4-5.2-9.1-6.5c-1.3-0.5-2.7-0.9-4.6-0.3c3.3,1.7,5.8,3.7,7.6,6.4
			c2,2.9,4.3,5.6,6.4,8.3c1,1.3,2.6,2.3,2.8,4.1c-2.1,0.1-3.7-1.2-5.2-2.4c-3.2-2.6-6.6-4.7-10.4-6.3c-2.1-0.9-4.3-1.3-7.1-0.3
			c3.8,1.4,6.9,3.1,9.2,5.7c2.9,3.2,6,6,9.4,8.5c0.6,0.4,1.5,0.9,1,1.7c-0.5,0.8-1.3,0.3-1.9-0.1c-4.5-2.1-9-4.3-13.8-5.7
			c-2.6-0.8-5.2-1-8.2,0.5c3.8,0.8,7.2,2,9.9,4.2c3.4,2.8,7.1,5.2,11,7.1c0.4,0.2,1,0.4,0.8,1c-0.2,0.5-0.8,0.4-1.3,0.3
			c-1.8-0.3-3.5-0.7-5.3-1.1c-4.1-0.9-8.2-2.5-12.5-2.2c-1.8,0.1-3.5,0.4-5.2,2c9.2-0.2,15.3,6.8,23.5,8.4c-1.5,1.1-3,0.8-4.5,0.7
			c-4.3-0.2-8.6-1-13-0.7c-2.4,0.2-4.7,0.6-6.8,3c9-1.2,16.1,4.4,24.8,4.4c-1,1.3-1.8,1.4-2.6,1.5c-2,0.2-3.9,0.4-5.9,0.6
			c-3.6,0.3-7.2,0.3-10.7,1.5c-1.9,0.7-3.9,1.4-4.5,4c8.3-2.3,16.3,0.9,24.5,0.6c-1.4,1.5-3.2,1.7-4.9,2.2c-3.8,1-7.7,1.5-11.4,2.9
			c-2.6,1-4.3,2.9-6.1,5.3c4.4-1.1,23.3-3.3,25-2.9c-1.4,1.3-2.9,1.9-4.5,2.5c-3.5,1.5-7.1,2.7-10.3,4.5c-2.6,1.4-4.8,3.5-6.1,6.8
			c7.7-4.6,16.4-4.7,24.2-7.8c-1.2,1.5-2.2,3-3.8,4c-3.1,1.8-6.2,3.6-9.2,5.7c-2.7,1.9-4.6,4.5-5.6,8.3c6.9-6.2,15.5-7.8,22.9-12
			c0.2,1.1-0.4,1.5-0.8,2c-2.1,2.1-4.1,4.1-6.3,6.1c-1.9,1.7-3.9,3.2-5.6,5.2c-1.9,2.2-2.8,4.9-2.4,7.1c3.6-4.4,8.2-7.5,13.1-10.1
			c2.3-1.2,4.7-2.4,6.3-4.6c0.2-0.4,0.5-0.7,1-0.4c0.4,0.3,0.4,0.7,0.1,1.1c-0.8,1.2-1.6,2.5-2.5,3.6c-2.6,3.3-5.2,6.5-7.7,9.8
			c-1.8,2.4-2.7,5.1-2,8.3c1.9-4.1,5-7,8.5-9.6c3.5-2.5,6.2-5.9,9.4-8.9c0.4,1.3-0.3,2.1-0.7,3c-1.4,3.1-3.1,5.9-5,8.7
			c-1.6,2.4-2.6,5.1-3.4,7.8c-0.4,1.7-0.6,3.5,0.4,5.5c0.7-3.4,2.6-5.8,4.3-8.3c2.3-3.3,5.2-6.1,7.8-9.1c1.1-1.3,1.3-3.3,3.1-4.5
			c0.1,2.3-0.6,4.1-1.3,5.9c-1.6,3.9-3.4,7.8-4.5,11.9c-0.7,2.7-0.9,5.4,0.6,8.7c1.7-9.5,8.4-15.7,11.7-24c0.9,1.2,0.5,2,0.4,2.8
			c-0.9,4.5-2.1,8.9-2.9,13.4c-0.6,3.3-0.9,6.8,1.6,10.3c0.2-9.5,6.1-16.6,8.1-25c0.9,1.7,0.7,3.4,0.6,5c-0.2,4.5-1,9-0.7,13.5
			c0.2,2.5,0.6,4.9,3,7.2c-1.1-9.4,3.6-17.2,4-26.4c1.1,1.2,1.2,2.2,1.3,3.1c0.5,5,0.9,9.9,1.4,14.9c0.3,2.9,1.4,5.5,4.3,7.8
			c-2.7-9.4,1.1-18.1,0.2-27c1.3,1.8,1.9,3.8,2.4,5.8c1,4.4,1.6,8.8,3.4,13c0.9,2.1,2,4,4.6,5.2c-3.7-8.7-1.6-17.7-3.8-26.4
			c1.4,0.4,1.6,1.1,1.8,1.6c1.4,3.4,2.8,6.8,4.1,10.2c0.9,2.6,2,5.1,3.9,7.1c1.1,1.2,2,2.9,4.4,3.3c-2.5-4.1-3.8-8.3-4.5-12.6
			c-0.7-4.3-1.4-8.6-3.4-13.1c2,0.9,2.8,2.3,3.5,3.5c2.3,4.1,4.5,8.1,7.2,11.9c1.6,2.2,3.6,3.6,6.7,4.4c-6.3-7.3-7-16.5-11.1-24.4
			c3.4,3.4,6.7,6.7,9.4,10.6c1.8,2.5,4.1,4.4,7,5.6c0.9,0.3,1.8,0.6,2.9,0.2c-7.5-5.5-8.7-14.9-14.3-21.5c3.4,1.5,6.1,3.8,8.5,6.4
			c2.5,2.7,5.3,4.9,8.8,6.1c1.2,0.4,2.6,0.9,4,0.1c-7.8-4.5-11-13-17-18.9c2.6,0.5,4.8,1.7,6.7,3.3c3.4,2.7,7,5,11.3,6.1
			c1.5,0.4,3.1,0.7,4.9-0.4c-3.5-1.2-6.4-2.9-8.7-5.4c-2.8-3-5.8-5.7-9-8.2c-0.8-0.6-2.6-1-1.8-2.3c0.5-0.8,2.1,0.2,3.2,0.5
			c0.1,0,0.3,0.2,0.4,0.2c4.1,2.3,8.5,4.2,13.1,5.4c2.3,0.6,4.7,0.7,7.4-0.7c-3.5-0.8-6.5-1.7-8.9-3.6c-3.9-3-7.8-5.9-12.3-7.9
			c-0.4-0.2-0.8-0.4-0.6-0.9c0.2-0.5,0.6-0.4,1-0.4c2.6,0.5,5.1,1,7.7,1.6c3.6,0.8,7.1,2,10.9,1.7c1.7-0.1,3.3-0.4,4.6-1.8
			c-8.8-0.4-15.1-6.8-23.2-8.6c1.5-1.1,3-0.8,4.5-0.7c4.3,0.2,8.6,1.1,13,0.7c2.6-0.2,5.1-0.7,7.3-3.6c-9.2,1.3-16.6-3.3-25.1-3.9
			c0.8-1.3,1.7-1.2,2.5-1.4c4.8-0.8,9.6-0.5,14.4-1.4c2.7-0.5,4.9-1.8,6.6-4.5c-2.5,0.4-4.6,0.9-6.8,0.8c-2.3-0.1-4.6-0.4-6.8-0.6
			c-2.6-0.2-5.2-0.4-7.8-0.7c-0.9-0.1-2.4,0.6-2.5-0.5c-0.2-1.1,1.4-1,2.3-1.3c1.5-0.5,3-0.8,4.5-1.1c2.9-0.7,5.9-1.2,8.8-2.3
			c2.5-1,5.1-3.4,5.8-5.5c-4,1.8-8.1,2.3-12.3,2.4c-3.4,0.1-6.7,0.1-10,0.8c-0.5,0.1-1.3,0.5-1.5-0.2c-0.4-0.9,0.6-1,1.1-1.3
			c0.9-0.5,1.9-0.9,2.9-1.3c3.2-1.3,6.5-2.4,9.5-4.1c2.8-1.5,5.3-3.6,6.4-6.8c-3,1.7-6.1,2.9-9.3,3.6c-3.7,0.8-7.5,1.4-11,2.9
			c-0.8,0.4-2.1,1.3-2.6,0.5c-0.5-1,0.7-2,1.7-2.6c0.8-0.5,1.6-1.1,2.5-1.6c2.6-1.6,5.4-3.1,7.9-5c2.6-2,4.8-4.5,5.6-8.3
			c-6.4,5.7-14.4,7.4-21.3,11.2c-0.3,0.1-0.6,0.3-0.9,0c-0.4-0.4-0.2-0.8,0.1-1.1c0.5-0.6,1.2-1.1,1.7-1.8c2.8-3.3,6.5-5.5,9.3-8.6
			c2-2.2,3.5-4.8,3.5-8c-4.1,4.7-9.2,7.7-14.6,10.6c-0.9,0.5-1.8,1.2-2.7,1.7c-0.9,0.5-1.7,2.1-2.5,1.3c-1-1,0.6-2,1.2-2.8
			c2.7-3.5,5.5-6.9,8.2-10.4c1.8-2.4,2.7-5.1,2.2-8.5c-1.9,2.4-3,4.9-5,6.7c-3.8,3.4-8.2,6.3-11.5,10.3c-0.3,0.4-0.7,0.9-1.2,0.5
			c-0.7-0.5-0.2-1,0.1-1.5c1.2-2.9,2.9-5.5,4.6-8.1c1.7-2.6,3-5.4,3.8-8.4c0.5-1.8,0.6-3.6-0.3-5.9c-1,4.2-3.5,6.9-5.6,9.9
			c-2.6,3.6-6.2,6.3-8.2,10.3c-0.2,0.3-0.4,0.6-0.7,0.5c-0.5-0.1-0.6-0.6-0.5-1c0.3-1.3,0.7-2.5,1.2-3.7c1.6-3.9,3.3-7.7,4.4-11.7
			c0.7-2.7,1-5.5-0.6-8.7c-1.5,8.7-7.4,14.6-10.7,21.8c-0.2,0.4-0.4,0.8-0.9,0.6c-0.5-0.2-0.5-0.6-0.4-1c0.1-0.9,0.2-1.8,0.4-2.7
			c0.8-3.6,1.8-7.1,2.4-10.8C269.5,187.3,269.8,183.9,267.5,180.7z"/>
		<path fill="#FEFEFE" d="M452.4,377.8c0-82,0-164.1,0.1-246.1c0-2.5-0.6-3-3-3c-130,0.1-260,0.1-390,0.1c0.1-0.2-0.2-0.5,0.2-0.5
			c0.7,0,1.3,0,2,0c129.8,0,259.6,0,389.4-0.1c1.9,0,2.4,0.3,2.4,2.4c-0.1,81.8-0.1,163.5-0.1,245.3
			C453.4,376.4,454.4,377.9,452.4,377.8z"/>
		<path fill="#FEE901" d="M267.5,180.7c2.3,3.1,2,6.6,1.4,9.9c-0.6,3.6-1.6,7.2-2.4,10.8c-0.2,0.9-0.3,1.8-0.4,2.7
			c-0.1,0.4,0,0.8,0.4,1c0.5,0.2,0.7-0.2,0.9-0.6c3.3-7.3,9.3-13.1,10.7-21.8c1.6,3.2,1.3,5.9,0.6,8.7c-1.1,4-2.8,7.8-4.4,11.7
			c-0.5,1.2-0.8,2.5-1.2,3.7c-0.1,0.4,0,0.8,0.5,1c0.4,0.1,0.6-0.2,0.7-0.5c2-4,5.7-6.7,8.2-10.3c2.1-3,4.6-5.7,5.6-9.9
			c1,2.3,0.8,4.1,0.3,5.9c-0.8,3-2.1,5.8-3.8,8.4c-1.7,2.6-3.3,5.2-4.6,8.1c-0.2,0.5-0.7,1.1-0.1,1.5c0.5,0.4,0.9-0.1,1.2-0.5
			c3.3-4,7.6-6.9,11.5-10.3c2-1.8,3.1-4.3,5-6.7c0.4,3.4-0.5,6.1-2.2,8.5c-2.6,3.5-5.5,6.9-8.2,10.4c-0.6,0.8-2.2,1.8-1.2,2.8
			c0.8,0.8,1.6-0.8,2.5-1.3c0.9-0.5,1.8-1.2,2.7-1.7c5.3-2.9,10.5-5.9,14.6-10.6c0,3.2-1.5,5.7-3.5,8c-2.9,3.1-6.6,5.3-9.3,8.6
			c-0.5,0.6-1.2,1.2-1.7,1.8c-0.3,0.3-0.5,0.7-0.1,1.1c0.3,0.3,0.6,0.1,0.9,0c6.9-3.8,14.9-5.5,21.3-11.2c-0.8,3.8-3,6.3-5.6,8.3
			c-2.5,1.9-5.3,3.3-7.9,5c-0.8,0.5-1.7,1-2.5,1.6c-0.9,0.6-2.2,1.5-1.7,2.6c0.5,0.9,1.8-0.1,2.6-0.5c3.5-1.6,7.3-2.1,11-2.9
			c3.3-0.7,6.4-1.9,9.3-3.6c-1.1,3.3-3.6,5.3-6.4,6.8c-3,1.6-6.3,2.7-9.5,4.1c-1,0.4-2,0.8-2.9,1.3c-0.5,0.3-1.5,0.4-1.1,1.3
			c0.3,0.7,1,0.3,1.5,0.2c3.3-0.7,6.7-0.7,10-0.8c4.2-0.1,8.3-0.6,12.3-2.4c-0.7,2.1-3.3,4.5-5.8,5.5c-2.8,1.1-5.8,1.6-8.8,2.3
			c-1.5,0.4-3,0.7-4.5,1.1c-0.9,0.3-2.5,0.3-2.3,1.3c0.2,1.1,1.7,0.4,2.5,0.5c2.6,0.3,5.2,0.4,7.8,0.7c2.3,0.2,4.6,0.4,6.8,0.6
			c2.2,0.1,4.4-0.3,6.8-0.8c-1.6,2.7-3.8,3.9-6.6,4.5c-4.8,0.9-9.6,0.6-14.4,1.4c-0.8,0.1-1.8,0.1-2.5,1.4
			c8.5,0.6,15.9,5.2,25.1,3.9c-2.2,2.8-4.7,3.3-7.3,3.6c-4.4,0.4-8.7-0.5-13-0.7c-1.5-0.1-3-0.4-4.5,0.7c8.1,1.7,14.5,8.1,23.2,8.6
			c-1.3,1.4-3,1.6-4.6,1.8c-3.8,0.3-7.3-0.8-10.9-1.7c-2.5-0.6-5.1-1.1-7.7-1.6c-0.4-0.1-0.9-0.2-1,0.4c-0.2,0.5,0.3,0.7,0.6,0.9
			c4.5,2,8.4,4.9,12.3,7.9c2.5,1.9,5.5,2.9,8.9,3.6c-2.6,1.4-5.1,1.3-7.4,0.7c-4.6-1.2-8.9-3.1-13.1-5.4c-0.1-0.1-0.3-0.2-0.4-0.2
			c-1.1-0.3-2.6-1.3-3.2-0.5c-0.8,1.3,1,1.7,1.8,2.3c3.2,2.5,6.2,5.2,9,8.2c2.3,2.5,5.2,4.2,8.7,5.4c-1.8,1.1-3.4,0.8-4.9,0.4
			c-4.3-1.1-7.9-3.4-11.3-6.1c-2-1.6-4.1-2.8-6.7-3.3c6,5.9,9.2,14.4,17,18.9c-1.5,0.8-2.8,0.3-4-0.1c-3.5-1.2-6.3-3.4-8.8-6.1
			c-2.4-2.6-5.1-4.9-8.5-6.4c5.6,6.5,6.8,15.9,14.3,21.5c-1.1,0.4-2,0.1-2.9-0.2c-2.9-1.1-5.2-3-7-5.6c-2.7-3.9-6-7.2-9.4-10.6
			c4,7.9,4.8,17.1,11.1,24.4c-3.1-0.7-5.2-2.1-6.7-4.4c-2.7-3.8-4.9-7.9-7.2-11.9c-0.7-1.3-1.5-2.7-3.5-3.5
			c1.9,4.5,2.6,8.8,3.4,13.1c0.7,4.4,2,8.5,4.5,12.6c-2.4-0.4-3.3-2.1-4.4-3.3c-1.9-2-2.9-4.5-3.9-7.1c-1.3-3.4-2.7-6.8-4.1-10.2
			c-0.2-0.6-0.5-1.2-1.8-1.6c2.2,8.7,0.1,17.7,3.8,26.4c-2.6-1.2-3.7-3-4.6-5.2c-1.7-4.2-2.3-8.7-3.4-13c-0.5-2-1.1-4-2.4-5.8
			c0.8,8.8-3,17.5-0.2,27c-2.9-2.3-4-4.9-4.3-7.8c-0.6-5-0.9-9.9-1.4-14.9c-0.1-0.9-0.2-1.9-1.3-3.1c-0.4,9.1-5.1,16.9-4,26.4
			c-2.4-2.3-2.9-4.7-3-7.2c-0.3-4.5,0.5-9,0.7-13.5c0.1-1.7,0.3-3.4-0.6-5c-2,8.4-7.9,15.5-8.1,25c-2.5-3.5-2.2-7-1.6-10.3
			c0.8-4.5,1.9-8.9,2.9-13.4c0.2-0.8,0.5-1.6-0.4-2.8c-3.3,8.3-10,14.5-11.7,24c-1.5-3.3-1.3-6-0.6-8.7c1.1-4.1,2.9-8,4.5-11.9
			c0.7-1.8,1.4-3.6,1.3-5.9c-1.8,1.2-2,3.2-3.1,4.5c-2.6,3-5.5,5.8-7.8,9.1c-1.7,2.5-3.6,4.8-4.3,8.3c-1-2-0.9-3.8-0.4-5.5
			c0.7-2.8,1.8-5.4,3.4-7.8c1.8-2.8,3.6-5.6,5-8.7c0.4-0.8,1.1-1.6,0.7-3c-3.2,3-6,6.3-9.4,8.9c-3.5,2.6-6.6,5.5-8.5,9.6
			c-0.7-3.2,0.2-5.9,2-8.3c2.5-3.3,5.2-6.5,7.7-9.8c0.9-1.2,1.7-2.4,2.5-3.6c0.2-0.4,0.3-0.8-0.1-1.1c-0.5-0.3-0.7,0-1,0.4
			c-1.6,2.2-4,3.4-6.3,4.6c-4.9,2.6-9.5,5.6-13.1,10.1c-0.4-2.2,0.6-4.9,2.4-7.1c1.6-2,3.7-3.5,5.6-5.2c2.2-2,4.2-4,6.3-6.1
			c0.4-0.4,1.1-0.8,0.8-2c-7.4,4.2-16,5.8-22.9,12c1-3.8,2.9-6.4,5.6-8.3c2.9-2.1,6.1-3.9,9.2-5.7c1.6-1,2.6-2.5,3.8-4
			c-7.8,3.1-16.4,3.2-24.2,7.8c1.3-3.3,3.5-5.4,6.1-6.8c3.3-1.8,6.9-3,10.3-4.5c1.5-0.7,3.1-1.3,4.5-2.5c-1.7-0.4-20.6,1.7-25,2.9
			c1.8-2.5,3.5-4.3,6.1-5.3c3.7-1.4,7.6-1.9,11.4-2.9c1.7-0.5,3.5-0.7,4.9-2.2c-8.2,0.3-16.1-2.9-24.5-0.6c0.7-2.6,2.6-3.3,4.5-4
			c3.4-1.2,7.1-1.1,10.7-1.5c2-0.2,3.9-0.4,5.9-0.6c0.8-0.1,1.6-0.2,2.6-1.5c-8.7,0-15.8-5.6-24.8-4.4c2.1-2.3,4.4-2.8,6.8-3
			c4.4-0.3,8.7,0.5,13,0.7c1.5,0.1,3,0.4,4.5-0.7c-8.2-1.6-14.3-8.6-23.5-8.4c1.7-1.6,3.4-1.8,5.2-2c4.3-0.3,8.4,1.3,12.5,2.2
			c1.8,0.4,3.5,0.7,5.3,1.1c0.5,0.1,1.1,0.2,1.3-0.3c0.3-0.6-0.3-0.8-0.8-1c-4-1.9-7.6-4.4-11-7.1c-2.7-2.2-6.1-3.4-9.9-4.2
			c2.9-1.5,5.6-1.3,8.2-0.5c4.8,1.4,9.3,3.5,13.8,5.7c0.7,0.3,1.5,0.8,1.9,0.1c0.5-0.8-0.3-1.2-1-1.7c-3.5-2.5-6.6-5.3-9.4-8.5
			c-2.3-2.6-5.4-4.3-9.2-5.7c2.8-0.9,5-0.5,7.1,0.3c3.8,1.6,7.2,3.7,10.4,6.3c1.4,1.2,3,2.5,5.2,2.4c-0.3-1.8-1.8-2.8-2.8-4.1
			c-2.1-2.8-4.4-5.4-6.4-8.3c-1.8-2.6-4.3-4.7-7.6-6.4c1.9-0.6,3.3-0.2,4.6,0.3c3.6,1.3,6.5,3.7,9.1,6.5c1.8,2,3.9,3.7,6.1,5.2
			c0.4,0.3,0.9,0.6,1.3,0.1c0.3-0.4-0.1-0.7-0.3-1.1c-3.2-4.4-5.4-9.5-8.2-14.2c-1.2-2.1-3-3.8-5.1-5.5c1.2-0.5,2.1-0.1,3,0.2
			c2.8,1.1,5,2.9,6.6,5.3c2.6,3.6,5.4,6.9,8.5,10.1c0.9-1.7-6.3-18.8-10.1-23.7c3.3,0.8,5.5,2.4,7.1,5c2.3,3.5,4.5,7,6.4,10.7
			c0.5,0.9,1.2,1.8,1.8,2.6c0.2,0.3,0.5,0.7,1,0.4c0.7-0.3,0.3-0.8,0.2-1.2c-1.5-4.4-2.1-9.1-3-13.6c-0.7-3.4-2.1-6.5-3.7-9.7
			c1.3-0.2,2.1,0.5,2.8,1.2c2.3,2.7,4.3,5.6,5.3,9c1,3.4,2.6,6.5,3.9,9.8c0.2,0.5,0.4,1.2,1.1,0.9c0.6-0.2,0.5-0.8,0.4-1.3
			c-1.3-5.4-0.6-10.9-1.3-16.4c-0.3-2.6-1-5.1-2.3-8c3,1.7,4.3,3.9,5.2,6.5c1.5,4.3,2,8.9,3.3,13.3c0.2,0.7,0.4,1.4,0.6,2.1
			c0.2,0.5,0.4,1,1,0.8c0.5-0.2,0.4-0.7,0.4-1c-0.1-5.3,1-10.6,1.2-15.9c0.1-2.5-0.3-5-0.8-7.8c2.2,1.2,2.9,3.1,3.5,5
			c1.2,4,1.1,8.1,1.4,12.2c0.2,1.9,0.4,3.7,0.6,5.6c0,0.4,0.3,0.8,0.7,0.8c0.5,0,0.6-0.4,0.7-0.8c0.7-5.9,3-11.4,3.8-17.2
			c0.3-2.2,0.2-4.5,0-7.3c3.9,4.9,3.1,10.1,2.8,15.1c-0.2,2.9-0.4,5.7-0.6,8.6c0,0.6,0,1.3,0.7,1.4c0.6,0.1,0.7-0.6,0.8-1
			c1.4-5.3,4.4-10,5.9-15.3C266.8,185.4,267.4,183.1,267.5,180.7z M218.8,252.6c0.1,6.7,1.6,13,4.6,19c5.5,10.9,14.4,17.3,25.9,20.1
			c7.8,1.9,15.5,0.6,22.7-3.2c4-2.1,7.6-4.5,10.7-7.9c8.8-9.6,12.2-20.7,10.5-33.4c-1.9-14.8-9.9-25.5-23.5-31.4
			c-9.9-4.3-20.1-4.1-29.9,1.5c-4.6,2.6-8.7,5.5-12.1,9.7C221.8,234.6,219,243.2,218.8,252.6z"/>
		<path fill="#E7112D" d="M218.8,252.6c0.2-9.4,3-17.9,9-25.5c3.4-4.2,7.5-7.1,12.1-9.7c9.8-5.6,20-5.8,29.9-1.5
			c13.5,5.9,21.5,16.6,23.5,31.4c1.7,12.7-1.8,23.8-10.5,33.4c-3.1,3.4-6.7,5.8-10.7,7.9c-7.2,3.8-14.9,5.1-22.7,3.2
			c-11.5-2.8-20.4-9.3-25.9-20.1C220.4,265.6,218.9,259.3,218.8,252.6z M256.6,284.7c3.3,0,7.2-0.7,11-2.1c1.2-0.5,1.6-1.1,1.6-2.3
			c0-2.5-0.2-5.1-0.6-7.6c-1.4-9.2-5-17.4-11-24.5c-1.2-1.4-1.9-1.2-3,0.1c-2.1,2.5-3.9,5.2-5.5,8.1c-4.1,7.4-5.9,15.4-6,23.8
			c0,1.4,0.4,2,1.7,2.5C248.4,283.9,252.1,284.6,256.6,284.7z M285.6,261.6c0.3-0.4,0.5-0.5,0.5-0.6c2.8-9.4,1.6-18.4-2.7-27.1
			c-0.4-0.8-0.9-1.2-1.9-1.1c-4.2,0.6-8.2,1.6-11.9,4.3C277.4,243.7,282.2,252.2,285.6,261.6z M242.7,237.1
			c-3.6-2.6-7.6-3.5-11.7-4.2c-1.4-0.2-1.9,0.6-2.4,1.6c-1.5,3.6-3.1,7.2-3.6,11.1c-0.6,5.4-0.6,10.7,1.5,16.4
			C230.2,252.2,235.1,243.8,242.7,237.1z M238.3,223.6c1.1,0.2,1.8,0.3,2.5,0.4c3.6,0.5,7.2,0.8,10.6,2.6c2.9,1.5,5.9,2.1,9,0.3
			c3.8-2.2,8-2.5,12.2-3c0.4,0,1,0.1,1.2-0.5C264.5,215.8,247.2,215.8,238.3,223.6z M273.6,278.5c2.7-1.3,2.7-1.3,2.5-3.9
			c-0.7-7.9-3.3-15.2-7.3-22.1c-1.9-3.3-4.7-6.1-7-9.1c-0.6-0.8-1.2-1.2-2.2-0.3c-0.9,0.8-0.3,1.4,0.1,2.1c0.2,0.4,0.7,0.7,1,1.1
			c4.9,5.1,8,11.2,10.2,17.9C272.5,268.8,273.1,273.6,273.6,278.5z M236.3,275.3c-0.5,1.7,0.7,2.9,2,3c1.4,0.1,0.8-1.6,0.9-2.5
			c1.1-11.4,5-21.5,13-29.9c0.3-0.3,0.6-0.6,0.8-0.9c0.3-0.6,0.8-1.2-0.1-1.9c-0.7-0.5-1.3-0.6-1.9,0.1c-0.8,1-1.6,2-2.5,3
			c-4.3,4.6-7.2,10.1-9.3,16C237.6,266.3,236.5,270.7,236.3,275.3z M232.2,272c1.9-12.1,7-22.4,15.6-31c0.3-0.3,1.1-0.7,0.4-1.3
			c-0.5-0.4-1.1-1.1-1.9-0.5c-0.5,0.4-1,0.8-1.5,1.3c-7.2,7.3-12,15.9-14.5,25.9C229.6,268.9,230.2,270.4,232.2,272z M280.3,272
			c1.9-1.7,2.5-3.3,1.9-5.7c-2-8.4-6.1-15.8-11.4-22.6c-1.2-1.6-2.9-2.9-4.3-4.4c-0.8-0.8-1.5-0.2-2.2,0.3c-1,0.8,0.1,1.1,0.4,1.5
			c1.4,1.4,2.6,2.9,3.8,4.4C275.1,253.2,278.5,262,280.3,272z M260.3,229.9c1.2,1.5,2.3,1.4,3.5,0.9c3.6-1.4,7.3-2.3,11.1-2.8
			c1.1-0.1,2.3,0.2,3.8-1.1C271.9,225.8,266.2,227.9,260.3,229.9z M252,230.1c-5.7-3-15.5-4.5-17.7-2.8c0.3,0.2,0.6,0.4,0.9,0.4
			c4.8,0.4,9.5,1.4,14,3.2C250.4,231.4,251.1,230.9,252,230.1z M281.1,230.9c-0.6-1.4-1.5-1.1-2.3-1.1c-4,0.3-7.9,1.3-11.6,2.6
			c-0.5,0.2-1.6,0.2-1.3,1.1c0.2,0.7,1.1,1,1.9,0.7C272,232.4,276.4,231.5,281.1,230.9z M231.4,230.9c4.6,0.6,9.1,1.6,13.4,3.4
			c0.7,0.3,1.4,0,1.7-0.6c0.5-1-0.6-1-1.1-1.1c-3.8-1.4-7.8-2.4-11.9-2.7C232.7,229.7,231.8,229.5,231.4,230.9z M254.3,233.1
			c2,1.3,2,1.3,3.6-0.2C256.8,231.7,255.6,231.7,254.3,233.1z M252.7,236.7c-0.5-0.6-1.1-1.1-1.8-1c-0.6,0.1-1.5,0.4-1.2,1.2
			c0.2,0.7,1,1,1.8,0.9C252,237.6,252.6,237.4,252.7,236.7z M261.1,237.8c0.7-0.2,1.5-0.3,1.6-1.2c0.1-0.6-0.6-0.9-1.2-0.9
			c-0.7,0-1.6,0.2-1.7,1C259.7,237.4,260.5,237.6,261.1,237.8z M257.7,240.1c-0.2-0.7-0.8-1-1.4-1.1c-0.7-0.1-1.4,0.4-1.5,0.9
			c-0.2,0.7,0.6,1.1,1.2,1.3C256.8,241.5,257.2,240.8,257.7,240.1z"/>
		<path fill="#FEE901" d="M256.6,284.7c-4.5-0.1-8.2-0.8-11.8-2.1c-1.3-0.5-1.7-1.2-1.7-2.5c0.1-8.4,2-16.3,6-23.8
			c1.6-2.9,3.3-5.6,5.5-8.1c1.1-1.3,1.8-1.5,3-0.1c6,7.1,9.6,15.3,11,24.5c0.4,2.5,0.6,5,0.6,7.6c0,1.2-0.4,1.9-1.6,2.3
			C263.8,284,259.9,284.7,256.6,284.7z"/>
		<path fill="#FEE901" d="M285.6,261.6c-3.5-9.5-8.3-17.9-16-24.5c3.7-2.6,7.7-3.6,11.9-4.3c1-0.1,1.5,0.3,1.9,1.1
			c4.3,8.7,5.5,17.7,2.7,27.1C286.1,261.2,286,261.3,285.6,261.6z"/>
		<path fill="#FEE901" d="M242.7,237.1c-7.7,6.6-12.5,15.1-16.1,24.9c-2.1-5.7-2.1-11.1-1.5-16.4c0.4-4,2-7.5,3.6-11.1
			c0.4-1,1-1.8,2.4-1.6C235.2,233.6,239.1,234.6,242.7,237.1z"/>
		<path fill="#FEE901" d="M238.3,223.6c8.9-7.8,26.2-7.8,35.5-0.3c-0.2,0.6-0.8,0.5-1.2,0.5c-4.2,0.4-8.5,0.8-12.2,3
			c-3.1,1.8-6.1,1.3-9-0.3c-3.3-1.8-7-2.1-10.6-2.6C240.1,223.8,239.4,223.7,238.3,223.6z"/>
		<path fill="#FEE901" d="M273.6,278.5c-0.5-4.9-1.1-9.8-2.6-14.4c-2.2-6.7-5.4-12.7-10.2-17.9c-0.3-0.4-0.8-0.7-1-1.1
			c-0.4-0.6-1.1-1.2-0.1-2.1c1-0.9,1.6-0.4,2.2,0.3c2.3,3,5.1,5.8,7,9.1c3.9,6.9,6.6,14.2,7.3,22.1
			C276.3,277.2,276.3,277.2,273.6,278.5z"/>
		<path fill="#FEE901" d="M236.3,275.3c0.2-4.6,1.3-9,2.8-13.2c2.1-5.9,5-11.3,9.3-16c0.9-0.9,1.6-2,2.5-3c0.6-0.7,1.1-0.6,1.9-0.1
			c0.9,0.6,0.4,1.3,0.1,1.9c-0.2,0.4-0.5,0.6-0.8,0.9c-7.9,8.4-11.9,18.5-13,29.9c-0.1,0.9,0.6,2.6-0.9,2.5
			C237,278.2,235.8,277,236.3,275.3z"/>
		<path fill="#FEE901" d="M232.2,272c-1.9-1.6-2.6-3.2-2-5.6c2.5-10,7.3-18.6,14.5-25.9c0.5-0.5,0.9-0.9,1.5-1.3
			c0.8-0.6,1.4,0.1,1.9,0.5c0.8,0.6,0,1-0.4,1.3C239.2,249.6,234,259.9,232.2,272z"/>
		<path fill="#FEE901" d="M280.3,272c-1.8-10-5.2-18.9-11.7-26.4c-1.3-1.5-2.4-3.1-3.8-4.4c-0.4-0.4-1.4-0.7-0.4-1.5
			c0.6-0.5,1.3-1.1,2.2-0.3c1.5,1.4,3.1,2.8,4.3,4.4c5.3,6.8,9.3,14.1,11.4,22.6C282.8,268.7,282.2,270.4,280.3,272z"/>
		<path fill="#FEE901" d="M260.3,229.9c6-2,11.6-4.1,18.5-3.1c-1.6,1.3-2.8,1-3.8,1.1c-3.8,0.5-7.6,1.4-11.1,2.8
			C262.5,231.2,261.4,231.3,260.3,229.9z"/>
		<path fill="#FEE901" d="M252,230.1c-0.9,0.8-1.6,1.3-2.8,0.9c-4.5-1.8-9.2-2.9-14-3.2c-0.3,0-0.5-0.2-0.9-0.4
			C236.5,225.6,246.3,227.1,252,230.1z"/>
		<path fill="#FEE901" d="M281.1,230.9c-4.7,0.7-9.1,1.6-13.4,3.3c-0.8,0.3-1.6,0-1.9-0.7c-0.3-0.9,0.8-0.9,1.3-1.1
			c3.8-1.4,7.6-2.4,11.6-2.6C279.6,229.7,280.5,229.4,281.1,230.9z"/>
		<path fill="#FEE901" d="M231.4,230.9c0.5-1.4,1.3-1.1,2.1-1.1c4.1,0.3,8,1.3,11.9,2.7c0.5,0.2,1.6,0.1,1.1,1.1
			c-0.3,0.6-1,0.9-1.7,0.6C240.5,232.5,236,231.5,231.4,230.9z"/>
		<path fill="#FEE901" d="M254.3,233.1c1.3-1.3,2.5-1.4,3.6-0.2C256.3,234.4,256.3,234.4,254.3,233.1z"/>
		<path fill="#FEE901" d="M252.7,236.7c-0.1,0.7-0.7,1-1.2,1.1c-0.8,0.2-1.6-0.2-1.8-0.9c-0.3-0.8,0.6-1.1,1.2-1.2
			C251.6,235.6,252.2,236.1,252.7,236.7z"/>
		<path fill="#FEE901" d="M261.1,237.8c-0.6-0.2-1.5-0.4-1.3-1.1c0.1-0.7,1-1,1.7-1c0.6,0,1.3,0.4,1.2,0.9
			C262.7,237.5,261.8,237.7,261.1,237.8z"/>
		<path fill="#FEE901" d="M257.7,240.1c-0.5,0.6-0.9,1.3-1.8,1.1c-0.6-0.2-1.4-0.6-1.2-1.3c0.2-0.5,0.8-1.1,1.5-0.9
			C256.9,239.1,257.5,239.5,257.7,240.1z"/>
	</g>
</g>
</svg>
